<svg width="40" height="40" viewBox="0 0 40 40" fill="none" xmlns="http://www.w3.org/2000/svg">
<g clip-path="url(#clip0_2045_4521)">
<path d="M20 22.3047C21.2712 22.3047 22.3052 21.2706 22.3052 19.9995C22.3052 18.7285 21.2711 17.6943 20 17.6943C18.7289 17.6943 17.6948 18.7285 17.6948 19.9995C17.6948 21.2706 18.7289 22.3047 20 22.3047ZM20 18.8723C20.6216 18.8723 21.1272 19.3779 21.1272 19.9995C21.1272 20.621 20.6215 21.1267 20 21.1267C19.3785 21.1267 18.8728 20.621 18.8728 19.9995C18.8728 19.3779 19.3784 18.8723 20 18.8723Z" fill="#469AF5"/>
<path d="M36.5255 30.2046C36.2541 30.0252 35.8887 30.0996 35.7093 30.3709C32.2085 35.6624 26.3359 38.8215 19.9999 38.8215C14.9724 38.8215 10.2458 36.8637 6.69078 33.3087C3.13578 29.7537 1.17801 25.0271 1.17801 19.9996C1.17801 17.4348 1.68455 14.9488 2.68366 12.6106C2.81144 12.3115 2.67259 11.9654 2.37345 11.8376C2.0744 11.7097 1.72814 11.8486 1.60036 12.1478C0.538429 14.633 0 17.2747 0 19.9996C0 25.3418 2.08036 30.3642 5.85785 34.1418C9.63541 37.9193 14.6578 39.9996 20 39.9996C26.7324 39.9996 32.9723 36.6431 36.6918 31.0209C36.8713 30.7496 36.7968 30.3842 36.5255 30.2046Z" fill="#469AF5"/>
<path d="M34.1422 5.85785C30.3647 2.08036 25.3423 0 20.0002 0C16.4361 0 12.9369 0.949318 9.8809 2.74531C6.91499 4.48829 4.43285 6.98112 2.70259 9.9541C2.539 10.2352 2.63418 10.5958 2.91534 10.7595C3.19649 10.923 3.55704 10.8279 3.72062 10.5466C5.34934 7.74808 7.68588 5.40164 10.4777 3.76091C13.353 2.07118 16.6457 1.17801 20.0002 1.17801C25.0277 1.17801 29.7543 3.13586 33.3093 6.69085C36.8643 10.2458 38.8221 14.9725 38.8221 20C38.8221 22.9136 38.1746 25.7065 36.8977 28.301C36.754 28.5928 36.8742 28.9459 37.166 29.0895C37.2497 29.1307 37.3383 29.1502 37.4257 29.1502C37.643 29.1502 37.8521 29.0294 37.9546 28.8212C39.312 26.0634 40.0002 23.0956 40.0002 20C40.0002 14.6578 37.9198 9.63533 34.1422 5.85785Z" fill="#469AF5"/>
<path d="M20.0001 37.0138C24.5447 37.0138 28.8174 35.244 32.0309 32.0304C35.2444 28.8169 37.0143 24.5442 37.0143 19.9996C37.0143 15.4549 35.2445 11.1823 32.0309 7.96872C28.8174 4.75519 24.5447 2.98535 20.0001 2.98535C15.4555 2.98535 11.1828 4.75511 7.96921 7.96872C4.75568 11.1823 2.98584 15.4549 2.98584 19.9996C2.98584 24.5442 4.7556 28.8169 7.96921 32.0305C11.1827 35.244 15.4554 37.0138 20.0001 37.0138ZM8.39942 9.23194L8.74096 9.57348C8.85594 9.68854 9.00672 9.74602 9.15743 9.74602C9.30813 9.74602 9.45892 9.68854 9.57389 9.57348C9.80392 9.34346 9.80392 8.97058 9.57389 8.74055L9.23235 8.39901C11.9258 5.89715 15.4883 4.3198 19.4111 4.17553V4.6659C19.4111 4.99119 19.6748 5.2549 20.0001 5.2549C20.3253 5.2549 20.5891 4.99119 20.5891 4.6659V4.17553C24.5118 4.31972 28.0743 5.89715 30.7678 8.39901L30.4262 8.74055C30.1962 8.97058 30.1962 9.34346 30.4262 9.57348C30.5412 9.68854 30.692 9.74602 30.8427 9.74602C30.9934 9.74602 31.1442 9.68854 31.2592 9.57348L31.6007 9.23194C34.1026 11.9254 35.68 15.4879 35.8242 19.4106H35.3338C35.0085 19.4106 34.7448 19.6744 34.7448 19.9996C34.7448 20.3249 35.0085 20.5887 35.3338 20.5887H35.8242C35.68 24.5113 34.1026 28.0739 31.6007 30.7674L31.2592 30.4258C31.0291 30.1958 30.6562 30.1958 30.4262 30.4258C30.1962 30.6558 30.1962 31.0288 30.4262 31.2588L30.7678 31.6004C28.0743 34.1022 24.5118 35.6797 20.5891 35.8238V35.3335C20.5891 35.0082 20.3253 34.7445 20.0001 34.7445C19.6748 34.7445 19.4111 35.0082 19.4111 35.3335V35.8238C15.4884 35.6797 11.9258 34.1022 9.23235 31.6004L9.57389 31.2588C9.80392 31.0288 9.80392 30.6559 9.57389 30.4258C9.34387 30.1958 8.97091 30.1958 8.74096 30.4258L8.39942 30.7674C5.89756 28.0739 4.32021 24.5114 4.17594 20.5887H4.66631C4.9916 20.5887 5.25531 20.3249 5.25531 19.9996C5.25531 19.6744 4.9916 19.4106 4.66631 19.4106H4.17594C4.32013 15.4879 5.89756 11.9254 8.39942 9.23194Z" fill="#469AF5"/>
<path d="M6.80988 20.5627L10.2205 21.611C10.4783 23.1865 11.1216 24.6861 12.0858 25.964L10.7857 28.418C10.6646 28.6465 10.7068 28.9274 10.8896 29.1102C11.0029 29.2234 11.1536 29.2827 11.3063 29.2827C11.4002 29.2827 11.4948 29.2603 11.5819 29.2142L14.0358 27.9141C15.3153 28.8796 16.8126 29.5211 18.3888 29.7795L19.4371 33.19C19.5131 33.4372 19.7415 33.606 20.0001 33.606C20.2587 33.606 20.4871 33.4373 20.5631 33.19L21.6131 29.774C21.6398 29.7732 21.6668 29.7709 21.694 29.7663C23.2399 29.5 24.71 28.8617 25.9655 27.9147L28.4184 29.2142C28.5054 29.2603 28.6001 29.2827 28.694 29.2827C28.8467 29.2827 28.9974 29.2234 29.1107 29.1102C29.2936 28.9273 29.3358 28.6465 29.2147 28.418L27.9145 25.964C28.879 24.6856 29.5212 23.1871 29.7793 21.6112L33.1904 20.5627C33.4377 20.4868 33.6064 20.2584 33.6064 19.9997C33.6064 19.741 33.4377 19.5127 33.1904 19.4367L29.7794 18.3883C29.5214 16.8133 28.8788 15.3134 27.9146 14.0354L29.2147 11.5814C29.3358 11.3529 29.2935 11.0721 29.1107 10.8892C28.9279 10.7063 28.647 10.6642 28.4185 10.7853L25.9651 12.0851C24.6862 11.1202 23.1889 10.4789 21.6116 10.2206L20.5632 6.80955C20.4872 6.56232 20.2588 6.39355 20.0002 6.39355C19.7416 6.39355 19.5132 6.56225 19.4372 6.80955L18.3888 10.2206C16.8141 10.4785 15.3135 11.1213 14.0358 12.0854L11.5819 10.7853C11.3534 10.6642 11.0726 10.7064 10.8897 10.8893C10.7068 11.0722 10.6646 11.353 10.7857 11.5815L12.0856 14.0349C11.1213 15.3126 10.4791 16.8138 10.2212 18.3883L6.80996 19.4368C6.56273 19.5127 6.39404 19.7411 6.39404 19.9998C6.39389 20.2583 6.56266 20.4867 6.80988 20.5627ZM11.4996 22.0041L13.8077 22.7136L12.7037 24.7975C12.1419 23.9438 11.7333 22.9964 11.4996 22.0041ZM14.9542 23.066L16.4684 23.5314L16.9338 25.0456L12.7236 27.2761L14.9542 23.066ZM15.202 27.2962L17.2861 26.192L17.9959 28.501C17.0032 28.2673 16.0564 27.8587 15.202 27.2962ZM22.0044 28.5009L22.714 26.1921L24.7988 27.2966C23.945 27.8585 22.9971 28.2672 22.0044 28.5009ZM23.0664 25.0456L23.5318 23.5314L25.046 23.066L27.2765 27.2761L23.0664 25.0456ZM27.2966 24.7975L26.1925 22.7136L28.5005 22.0042C28.2667 22.9966 27.8585 23.9437 27.2966 24.7975ZM28.5004 17.9951L26.1924 17.2857L27.2965 15.2018C27.8583 16.0555 28.2666 17.0031 28.5004 17.9951ZM25.046 16.9334L23.5318 16.468L23.0664 14.9538L27.2765 12.7232L25.046 16.9334ZM24.7984 12.703L22.714 13.8073L22.0046 11.4993C22.9976 11.7331 23.9444 12.1408 24.7984 12.703ZM17.9955 11.4994L17.2861 13.8073L15.2022 12.7032C16.0558 12.1415 17.0036 11.7332 17.9955 11.4994ZM16.9338 14.9538L16.4685 16.468L14.9542 16.9334L12.7237 12.7232L16.9338 14.9538ZM12.7035 15.2014L13.8077 17.2858L11.4997 17.9952C11.7335 17.0033 12.1416 16.0551 12.7035 15.2014ZM17.1127 17.5023C17.2993 17.445 17.4453 17.2989 17.5027 17.1123L20 8.98722L22.4974 17.1123C22.5548 17.2989 22.7008 17.4449 22.8873 17.5023L31.0125 19.9996L26.7913 21.2971L22.8873 22.4971C22.7007 22.5544 22.5548 22.7005 22.4974 22.887L20 31.0121L17.5027 22.887C17.4453 22.7004 17.2993 22.5544 17.1127 22.497L8.98763 19.9996L17.1127 17.5023Z" fill="#B6D64F"/>
</g>
<defs>
<clipPath id="clip0_2045_4521">
<rect width="40" height="40" fill="white"/>
</clipPath>
</defs>
</svg>
