<svg width="40" height="40" viewBox="0 0 40 40" fill="none" xmlns="http://www.w3.org/2000/svg">
<path d="M16.075 34.4689C13.1938 34.4689 10.4875 33.3439 8.45003 31.3064C5.86253 28.7252 4.76878 25.0439 5.52503 21.4689C5.55003 21.3502 5.60628 21.2439 5.69378 21.1564C8.15628 18.6627 11.275 19.6377 14.575 20.6627C17.9 21.7002 21.6688 22.8752 25.7563 21.0252C25.9313 20.9439 26.125 20.9502 26.3 21.0377C26.475 21.1252 26.5875 21.2814 26.6313 21.4689C27.3813 25.0439 26.2875 28.7252 23.7063 31.3064C21.6688 33.3439 18.9625 34.4689 16.0813 34.4689H16.075ZM6.71253 21.9127C6.11878 25.0127 7.08753 28.1877 9.33753 30.4252C11.1375 32.2252 13.5313 33.2189 16.075 33.2189C18.6188 33.2189 21.0125 32.2252 22.8125 30.4252C24.9188 28.3252 25.9 25.4002 25.525 22.4814C21.2875 24.0814 17.375 22.8564 14.2 21.8689C11.0938 20.9002 8.61878 20.1314 6.71253 21.9189V21.9127Z" fill="#B6D64F"/>
<path d="M16.0753 31.6813C13.9753 31.6813 12.0003 30.8626 10.5128 29.3751C9.23781 28.1001 8.43156 26.4126 8.25031 24.6188C8.21281 24.2751 8.46281 23.9688 8.80656 23.9313C9.15656 23.9001 9.45656 24.1501 9.49406 24.4876C9.64406 25.9938 10.3253 27.4126 11.4003 28.4813C12.6503 29.7313 14.3128 30.4188 16.0816 30.4188C17.8503 30.4188 19.5128 29.7313 20.7566 28.4813C21.0003 28.2376 21.3941 28.2376 21.6441 28.4813C21.8878 28.7251 21.8878 29.1188 21.6441 29.3626C20.1566 30.8501 18.1816 31.6688 16.0816 31.6688L16.0753 31.6813Z" fill="#469AF5"/>
<path d="M16.0813 37.5004C15.9563 37.5004 15.8313 37.5004 15.7063 37.5004C11.9376 37.4004 8.46882 35.7941 5.93757 32.9879C1.15007 27.6629 1.33757 19.4941 6.36257 14.3816C10.2438 10.4316 16.0751 9.23164 21.2126 11.3316C21.9126 11.6191 22.7126 11.4504 23.2563 10.9066L27.5876 6.57539C27.8313 6.33164 28.2251 6.33164 28.4688 6.57539C28.7126 6.81914 28.7126 7.21289 28.4688 7.45664L24.1376 11.7879C23.2376 12.6879 21.9001 12.9629 20.7376 12.4879C16.0751 10.5816 10.7813 11.6691 7.25007 15.2566C2.76257 19.8191 2.58757 27.4004 6.86257 32.1504C9.16257 34.7066 12.3126 36.1629 15.7313 36.2504C19.1501 36.3504 22.3751 35.0566 24.7938 32.6379C28.3188 29.1191 29.3751 23.8566 27.4876 19.2379C27.0126 18.0691 27.2813 16.7379 28.1876 15.8379L32.5188 11.5066C32.7626 11.2629 33.1563 11.2629 33.4001 11.5066C33.6438 11.7504 33.6438 12.1441 33.4001 12.3879L29.0688 16.7191C28.5251 17.2629 28.3563 18.0629 28.6438 18.7629C30.7251 23.8504 29.5626 29.6441 25.6813 33.5191C23.1063 36.0941 19.7063 37.5004 16.0751 37.5004H16.0813Z" fill="#469AF5"/>
<path d="M34.2063 13.225C33.6875 13.225 33.175 13.0312 32.7813 12.6375L27.3438 7.20622C26.9625 6.82497 26.75 6.31872 26.75 5.78122C26.75 5.24372 26.9625 4.73747 27.3438 4.35622C28.1625 3.54372 29.5562 3.50622 30.3312 4.28122L30.5437 4.49372C30.7875 4.73747 30.7875 5.13122 30.5437 5.37497C30.3 5.61872 29.9063 5.61872 29.6563 5.37497L29.4438 5.16247C29.1563 4.87497 28.5438 4.91872 28.225 5.23747C28.0813 5.38122 28 5.57497 28 5.78122C28 5.98747 28.0813 6.18122 28.225 6.32497L33.6625 11.7562C33.9625 12.0562 34.45 12.0562 34.75 11.7562C34.9 11.6062 34.9938 11.375 35 11.125C35.0063 10.8875 34.9375 10.6687 34.8 10.5375L34.5875 10.325C34.3438 10.0812 34.3438 9.68747 34.5875 9.44372C34.8313 9.19997 35.225 9.19997 35.475 9.44372L35.6875 9.65622C36.0687 10.0312 36.2687 10.5875 36.2562 11.1687C36.2375 11.7312 36.0125 12.2687 35.6375 12.6437C35.2438 13.0375 34.725 13.2312 34.2125 13.2312L34.2063 13.225Z" fill="#469AF5"/>
<path d="M35.0313 10.5067C34.8688 10.5067 34.7063 10.4442 34.5876 10.3254L29.6563 5.39415C29.5313 5.26915 29.4626 5.09415 29.4751 4.91915C29.4876 4.74415 29.5688 4.5754 29.7063 4.46915L31.5313 2.99415C32.4126 2.28165 33.6751 2.3504 34.4751 3.1504L36.8376 5.5129C37.6376 6.3129 37.7063 7.5754 36.9938 8.45665L35.5188 10.2754C35.4063 10.4129 35.2438 10.4942 35.0688 10.5067C35.0563 10.5067 35.0438 10.5067 35.0376 10.5067H35.0313ZM31.0313 5.0004L34.9813 8.9504L36.0188 7.66915C36.3251 7.2879 36.3001 6.7379 35.9501 6.39415L33.5876 4.03165C33.2438 3.6879 32.6938 3.65665 32.3126 3.9629L31.0313 5.0004Z" fill="#469AF5"/>
<path d="M31.7246 36.5498C31.3809 36.5498 31.0996 36.2686 31.0996 35.9248V30.4561C31.0996 30.1123 31.3809 29.8311 31.7246 29.8311C32.0684 29.8311 32.3496 30.1123 32.3496 30.4561V35.9248C32.3496 36.2686 32.0684 36.5498 31.7246 36.5498Z" fill="#469AF5"/>
<path d="M34.4623 33.8184H28.9873C28.6436 33.8184 28.3623 33.5371 28.3623 33.1934C28.3623 32.8496 28.6436 32.5684 28.9873 32.5684H34.4623C34.8061 32.5684 35.0873 32.8496 35.0873 33.1934C35.0873 33.5371 34.8061 33.8184 34.4623 33.8184Z" fill="#469AF5"/>
<path d="M7.70605 10.6934C7.3623 10.6934 7.08105 10.4121 7.08105 10.0684V4.59961C7.08105 4.25586 7.3623 3.97461 7.70605 3.97461C8.0498 3.97461 8.33105 4.25586 8.33105 4.59961V10.0684C8.33105 10.4121 8.0498 10.6934 7.70605 10.6934Z" fill="#469AF5"/>
<path d="M10.4375 7.96191H4.96875C4.625 7.96191 4.34375 7.68066 4.34375 7.33691C4.34375 6.99316 4.625 6.71191 4.96875 6.71191H10.4375C10.7813 6.71191 11.0625 6.99316 11.0625 7.33691C11.0625 7.68066 10.7813 7.96191 10.4375 7.96191Z" fill="#469AF5"/>
<path d="M34.9878 28.6564C34.644 28.6564 34.3628 28.3752 34.3628 28.0314V24.2627C34.3628 23.9189 34.644 23.6377 34.9878 23.6377C35.3315 23.6377 35.6128 23.9189 35.6128 24.2627V28.0314C35.6128 28.3752 35.3315 28.6564 34.9878 28.6564Z" fill="#469AF5"/>
<path d="M36.8752 26.7754H33.1064C32.7627 26.7754 32.4814 26.4941 32.4814 26.1504C32.4814 25.8066 32.7627 25.5254 33.1064 25.5254H36.8752C37.2189 25.5254 37.5002 25.8066 37.5002 26.1504C37.5002 26.4941 37.2189 26.7754 36.8752 26.7754Z" fill="#469AF5"/>
</svg>
