<svg width="25" height="24" viewBox="0 0 25 24" fill="none" xmlns="http://www.w3.org/2000/svg">
<path fill-rule="evenodd" clip-rule="evenodd" d="M2.65785 14.6653C1.32202 14.6653 0.214712 13.7022 0.134762 12.4717C0.0898094 11.8599 0.295006 11.2649 0.712261 10.7954C0.919516 10.5628 1.17104 10.3713 1.45069 10.2286C1.26402 9.8374 1.1851 9.36044 1.22079 8.82034C1.27741 7.92681 1.87755 7.17328 2.71378 6.82774C2.55559 6.45372 2.4904 6.00764 2.52334 5.50769C2.57618 4.67456 3.10118 3.96289 3.84991 3.59024C3.6677 3.20181 3.59084 2.72965 3.62584 2.19539C3.70407 0.965242 4.81207 2.99757e-09 6.14893 2.99757e-09H11.7108C13.5899 2.99757e-09 15.3783 0.406273 16.8133 0.811518C17.1482 0.321861 17.7044 2.99757e-09 18.3334 2.99757e-09H23.2255C24.2038 2.99757e-09 24.9995 0.810833 24.9995 1.80696V14.2601C24.9995 15.2566 24.2038 16.0667 23.2255 16.0667H17.5593C17.2827 16.0667 17.0329 15.9586 16.8418 15.786C16.1232 15.8234 13.4708 16.4346 11.8591 23.227C11.6199 24.2293 10.339 24.0927 9.62216 23.7307C8.86486 23.3484 8.40608 22.5445 8.19471 21.7501C7.90133 20.4795 7.71363 18.5524 8.45001 16.4617C8.67202 15.8375 9.14966 15.2023 9.62079 14.652C8.2153 14.6578 5.88917 14.6623 2.65785 14.6653ZM23.2255 1.37255H18.3334C18.0688 1.37255 17.8537 1.60348 17.8537 1.88725V14.6942H23.2255C23.4472 14.6942 23.627 14.4993 23.627 14.2601V1.80696C23.627 1.56711 23.4472 1.37255 23.2255 1.37255ZM3.0154 11.3105C2.54255 11.3105 2.08241 11.3215 1.7379 11.7082C1.61849 11.8424 1.48089 12.0668 1.50388 12.3732C1.57491 12.9418 2.10437 13.2928 2.65716 13.2928C5.90496 13.29 10.8372 13.2808 11.1103 13.2698C11.5084 13.229 11.8515 13.5639 11.8429 13.9574C11.8356 14.2856 11.5669 14.5619 11.3337 14.8017C11.2826 14.8543 11.2332 14.9051 11.1886 14.9543L11.1873 14.9557C10.699 15.4938 9.9627 16.3051 9.74363 16.9201C9.11741 18.6979 9.27971 20.3487 9.52643 21.4197C9.68839 22.0267 9.99447 22.4261 10.5987 22.5994C12.266 15.891 15.0866 14.6338 16.4811 14.4426V2.14255C15.1343 1.76064 13.4464 1.37221 11.7112 1.37221H6.14961C5.3175 1.37221 4.79216 2.10343 5.05089 2.89436C5.15451 3.21176 5.33878 3.27662 5.65001 3.3123C6.02094 3.35485 6.33628 3.59265 6.33628 3.99858C6.33628 4.3774 6.02883 4.68485 5.65001 4.68485H5.04608C4.4425 4.68485 3.9254 5.09353 3.89349 5.59622C3.86741 5.99152 3.93878 6.30961 4.08908 6.47054C4.20427 6.59327 4.35295 6.60518 4.50419 6.61729C4.58002 6.62336 4.65649 6.62949 4.72971 6.64965C5.02275 6.73063 5.23344 7.00755 5.23344 7.31157C5.23344 7.91652 4.67755 7.99784 4.21192 7.99784C4.17779 7.99784 4.14364 7.99768 4.10952 7.99752C3.70069 7.99562 3.29464 7.99373 2.9526 8.26515C2.55148 8.58358 2.39569 9.40196 2.7951 9.79211C2.91197 9.90625 3.05514 9.91785 3.20153 9.92971C3.27694 9.93582 3.3532 9.942 3.42716 9.9623C3.7202 10.0433 3.93089 10.3202 3.93089 10.6242C3.93089 11.1629 3.45667 11.3105 3.0154 11.3105ZM22.0671 4.29642C22.0671 3.53981 21.4512 2.92387 20.6946 2.92387C19.9379 2.92387 19.322 3.53981 19.322 4.29642C19.322 5.05304 19.9379 5.66897 20.6946 5.66897C21.4512 5.66897 22.0671 5.05304 22.0671 4.29642Z" fill="#E9E9E9"/>
</svg>
