<svg width="25" height="25" viewBox="0 0 25 25" fill="none" xmlns="http://www.w3.org/2000/svg">
<path d="M1.70459 22.251H5.68184V12.5919L0 8.33057V20.5465C0 21.4883 0.762793 22.2511 1.70459 22.2511V22.251Z" fill="#E9E9E9"/>
<path d="M19.3184 22.251H23.2957C24.2374 22.251 25.0002 21.4882 25.0002 20.5465V8.33057L19.3184 12.5919V22.251Z" fill="#E9E9E9"/>
<path d="M19.3184 5.20571V12.5921L25.0002 8.33071V6.058C25.0002 3.95146 22.5954 2.74833 20.9093 4.01254L19.3184 5.20571Z" fill="#E9E9E9"/>
<path fill-rule="evenodd" clip-rule="evenodd" d="M5.68164 12.5919V5.20557L12.4998 10.3192L19.318 5.20557V12.5919L12.4998 17.7056L5.68164 12.5919Z" fill="#E9E9E9"/>
<path d="M0 6.058V8.33071L5.68184 12.5921V5.20571L4.09092 4.01254C2.40478 2.74833 0 3.95146 0 6.0579V6.058Z" fill="#E9E9E9"/>
</svg>
