<svg width="15" height="18" viewBox="0 0 15 18" fill="none" xmlns="http://www.w3.org/2000/svg">
<path fill-rule="evenodd" clip-rule="evenodd" d="M13.9942 7.48621C13.5758 7.48621 13.2367 7.82534 13.2367 8.24368V16.0218C13.2367 17.038 12.4129 17.8618 11.3967 17.8618C10.3805 17.8618 9.55674 17.038 9.55674 16.0218V12.6522C9.55674 11.5477 8.66131 10.6522 7.55674 10.6522H7.44326C6.33869 10.6522 5.44325 11.5477 5.44325 12.6522V16.0218C5.44325 17.038 4.61947 17.8618 3.60327 17.8618C2.58707 17.8618 1.76329 17.038 1.76329 16.0218V8.24368C1.76329 7.82534 1.42415 7.48621 1.00581 7.48621C0.307636 7.48621 -0.0187796 6.62185 0.505118 6.16035L3.24917 3.7431L6.1797 1.16361C6.93539 0.498433 8.06772 0.498651 8.82316 1.16412L11.7508 3.7431L14.4949 6.16035C15.0188 6.62185 14.6924 7.48621 13.9942 7.48621Z" fill="#E9E9E9"/>
</svg>
