<svg xmlns="http://www.w3.org/2000/svg" version="1.1" xmlns:xlink="http://www.w3.org/1999/xlink" xmlns:svgjs="http://svgjs.dev/svgjs" width="12" height="18"><svg width="12" height="18" viewBox="0 0 12 18" fill="none" xmlns="http://www.w3.org/2000/svg">
<path d="M8.94001 1.14842C8.92004 1.1391 8.89742 1.13582 8.87534 1.13903C8.85325 1.14223 8.8328 1.15178 8.81685 1.16631L7.52309 2.34809L6.09331 0.0451682C6.08285 0.031226 6.06892 0.0198371 6.0527 0.0119723C6.03647 0.00410749 6.01844 0 6.00013 0C5.98183 0 5.9638 0.00410749 5.94757 0.0119723C5.93135 0.0198371 5.91741 0.031226 5.90696 0.0451682L4.47718 2.34809L3.18342 1.16631C3.16749 1.1513 3.14683 1.14137 3.12442 1.13796C3.10201 1.13455 3.07902 1.13784 3.05875 1.14735C3.03849 1.15687 3.02201 1.17211 3.01169 1.19088C3.00138 1.20965 2.99775 1.23098 3.00135 1.25179L3.42975 3.91551C3.43362 3.93921 3.4466 3.96081 3.46628 3.97634C3.48596 3.99186 3.51102 4.00026 3.53685 3.99999H8.46342C8.48925 4.00026 8.51431 3.99186 8.53399 3.97634C8.55367 3.96081 8.56665 3.93921 8.57052 3.91551L8.99892 1.25179C9.00213 1.231 8.99816 1.20979 8.98758 1.19122C8.97699 1.17265 8.96034 1.15767 8.94001 1.14842Z" fill="#FF4B1E"></path>
<path d="M0 11.616C0 10.544 0.247996 9.584 0.743996 8.736C1.256 7.888 1.968 7.224 2.88 6.744C3.792 6.248 4.83999 6 6.02399 6C7.22399 6 8.264 6.248 9.144 6.744C10.024 7.224 10.696 7.888 11.16 8.736C11.64 9.584 11.88 10.544 11.88 11.616C11.88 12.688 11.64 13.656 11.16 14.52C10.696 15.368 10.024 16.04 9.144 16.536C8.264 17.032 7.208 17.28 5.976 17.28C4.824 17.28 3.792 17.056 2.88 16.608C1.984 16.16 1.28 15.512 0.767998 14.664C0.255998 13.816 0 12.8 0 11.616ZM3.384 11.64C3.384 12.184 3.496 12.68 3.72 13.128C3.944 13.56 4.248 13.904 4.632 14.16C5.016 14.416 5.448 14.544 5.928 14.544C6.712 14.544 7.336 14.272 7.8 13.728C8.264 13.168 8.49599 12.472 8.49599 11.64C8.49599 10.808 8.264 10.12 7.8 9.576C7.336 9.016 6.712 8.736 5.928 8.736C5.448 8.736 5.016 8.864 4.632 9.12C4.248 9.376 3.944 9.72 3.72 10.152C3.496 10.584 3.384 11.08 3.384 11.64Z" fill="#FF4B1E"></path>
</svg><style>@media (prefers-color-scheme: light) { :root { filter: none; } }
@media (prefers-color-scheme: dark) { :root { filter: none; } }
</style></svg>