<svg width="40" height="40" viewBox="0 0 40 40" fill="none" xmlns="http://www.w3.org/2000/svg">
<path d="M15.8081 9.19187L16.6919 8.30813L13.9331 5.54937C13.815 5.43125 13.75 5.27375 13.75 5.10687V5C13.75 4.65562 14.0306 4.375 14.375 4.375H14.4819C14.6487 4.375 14.8062 4.44 14.9244 4.55813L16.045 5.67875C16.4131 6.04688 16.9031 6.25 17.4244 6.25C18.5 6.25 19.375 5.375 19.375 4.29938V2.5C19.375 2.15562 19.6556 1.875 20 1.875C20.3444 1.875 20.625 2.15562 20.625 2.5V4.29938C20.625 5.375 21.5 6.25 22.5756 6.25C23.0969 6.25 23.5869 6.04688 23.955 5.67875L25.0756 4.55813C25.1937 4.44 25.3512 4.375 25.5181 4.375H25.625C25.9694 4.375 26.25 4.65562 26.25 5V5.10687C26.25 5.27375 26.185 5.43125 26.0669 5.54937L23.3081 8.30813L24.1919 9.19187L26.9506 6.43313C27.305 6.07938 27.5 5.60812 27.5 5.10687V5C27.5 3.96625 26.6587 3.125 25.625 3.125H25.5181C25.0175 3.125 24.5463 3.32 24.1919 3.67438L23.0713 4.795C22.9388 4.92688 22.7631 5 22.5756 5C22.1894 5 21.875 4.68563 21.875 4.29938V2.5C21.875 1.46625 21.0337 0.625 20 0.625C18.9662 0.625 18.125 1.46625 18.125 2.5V4.29938C18.125 4.68563 17.8106 5 17.4244 5C17.2369 5 17.0613 4.92688 16.9288 4.795L15.8081 3.67438C15.4544 3.32 14.9831 3.125 14.4819 3.125H14.375C13.3412 3.125 12.5 3.96625 12.5 5V5.10687C12.5 5.6075 12.695 6.07875 13.0494 6.43313L15.8081 9.19187Z" fill="#B6D64F"/>
<path d="M37.5 8.125C38.5337 8.125 39.375 7.28375 39.375 6.25V4.375H30.625V6.25C30.625 7.28375 31.4662 8.125 32.5 8.125H33.125V9.49C32.5956 9.67875 32.1787 10.0956 31.99 10.625H23.2512L20 5.74812L16.7488 10.625H8.01C7.82125 10.0956 7.40438 9.67875 6.875 9.49V8.125H7.5C8.53375 8.125 9.375 7.28375 9.375 6.25V4.375H0.625V6.25C0.625 7.28375 1.46625 8.125 2.5 8.125H3.125V9.49C2.39937 9.74875 1.875 10.4362 1.875 11.25V32.5C1.875 33.3137 2.39937 34.0013 3.125 34.26V35.625H2.5C1.46625 35.625 0.625 36.4663 0.625 37.5V39.375H9.375V37.5C9.375 36.4663 8.53375 35.625 7.5 35.625H6.875V34.26C7.40438 34.0713 7.82125 33.6544 8.01 33.125H31.9906C32.1794 33.6544 32.5963 34.0713 33.1256 34.26V35.625H32.5006C31.4669 35.625 30.6256 36.4663 30.6256 37.5V39.375H39.3756V37.5C39.3756 36.4663 38.5344 35.625 37.5006 35.625H36.8756V34.26C37.6012 34.0013 38.1256 33.3137 38.1256 32.5V11.25C38.1256 10.4362 37.6012 9.74875 36.8756 9.49V8.125H37.5ZM31.875 6.25V5.625H38.125V6.25C38.125 6.59438 37.8444 6.875 37.5 6.875H32.5C32.1556 6.875 31.875 6.59438 31.875 6.25ZM19.375 12.6369L16.4169 13.3763L19.375 8.93875V12.6369ZM19.375 13.9256V19.8112L16.0119 14.7669L19.375 13.9256ZM20.625 13.9256L23.9881 14.7662L20.625 19.8106V13.9256ZM20.625 12.6369V8.93875L23.5831 13.3763L20.625 12.6369ZM14.2488 14.375L20 23.0019L25.7512 14.375L24.0844 11.875H31.875V31.875H8.125V11.875H15.9156L14.2488 14.375ZM1.875 6.25V5.625H8.125V6.25C8.125 6.59438 7.84438 6.875 7.5 6.875H2.5C2.15562 6.875 1.875 6.59438 1.875 6.25ZM5.625 8.125V9.375H4.375V8.125H5.625ZM8.125 37.5V38.125H1.875V37.5C1.875 37.1556 2.15562 36.875 2.5 36.875H7.5C7.84438 36.875 8.125 37.1556 8.125 37.5ZM4.375 35.625V34.375H5.625V35.625H4.375ZM6.875 32.5C6.875 32.8444 6.59438 33.125 6.25 33.125H3.75C3.40562 33.125 3.125 32.8444 3.125 32.5V11.25C3.125 10.9056 3.40562 10.625 3.75 10.625H6.25C6.59438 10.625 6.875 10.9056 6.875 11.25V32.5ZM38.125 37.5V38.125H31.875V37.5C31.875 37.1556 32.1556 36.875 32.5 36.875H37.5C37.8444 36.875 38.125 37.1556 38.125 37.5ZM34.375 35.625V34.375H35.625V35.625H34.375ZM36.875 32.5C36.875 32.8444 36.5944 33.125 36.25 33.125H33.75C33.4056 33.125 33.125 32.8444 33.125 32.5V11.25C33.125 10.9056 33.4056 10.625 33.75 10.625H36.25C36.5944 10.625 36.875 10.9056 36.875 11.25V32.5ZM35.625 9.375H34.375V8.125H35.625V9.375Z" fill="#469AF5"/>
<path d="M18.125 30.625V24.375H9.375V30.625H18.125ZM10.625 25.625H16.875V29.375H10.625V25.625Z" fill="#B6D64F"/>
<path d="M20.625 24.375H21.875V25.625H20.625V24.375Z" fill="#469AF5"/>
<path d="M23.125 24.375H30.625V25.625H23.125V24.375Z" fill="#469AF5"/>
<path d="M20.625 26.875H30.625V28.125H20.625V26.875Z" fill="#469AF5"/>
<path d="M20.625 29.375H23.125V30.625H20.625V29.375Z" fill="#469AF5"/>
<path d="M24.375 29.375H30.625V30.625H24.375V29.375Z" fill="#469AF5"/>
<path d="M30.625 16.875H24.375V23.125H30.625V16.875ZM29.375 21.875H25.625V18.125H29.375V21.875Z" fill="#B6D64F"/>
<path d="M9.375 21.875H11.875V23.125H9.375V21.875Z" fill="#469AF5"/>
<path d="M13.125 21.875H15.625V23.125H13.125V21.875Z" fill="#469AF5"/>
<path d="M9.375 19.375H15.625V20.625H9.375V19.375Z" fill="#469AF5"/>
<path d="M9.375 16.875H15.625V18.125H9.375V16.875Z" fill="#469AF5"/>
</svg>
