<svg width="40" height="40" viewBox="0 0 40 40" fill="none" xmlns="http://www.w3.org/2000/svg">
<g clip-path="url(#clip0_2045_3801)">
<path d="M35 6.66668V2.00002C35 0.895459 34.1046 0 33 0H28.3333C27.8591 0.00143849 27.4216 0.255528 27.1854 0.666674H8.33331C6.49328 0.668897 5.00222 2.15996 5 3.99998V36.6666C5.00222 38.5067 6.49328 39.9978 8.33331 39.9999H31C32.1045 39.9999 33 39.1045 33 37.9999V35.3332C34.1046 35.3332 35 34.4378 35 33.3332V28.6665C34.9986 28.1923 34.7445 27.7548 34.3333 27.5186V7.81466C34.7445 7.57842 34.9986 7.14086 35 6.66668ZM32.6093 27.3333C32.256 27.3345 31.9173 27.4748 31.6666 27.724L27.3907 32C27.1416 32.2506 27.0012 32.5893 27 32.9426V33.3333H8.99998V2.00002H27V2.3907C27.0012 2.74405 27.1415 3.08275 27.3907 3.33337L31.6666 7.60934C31.9173 7.85847 32.256 7.99885 32.6093 8.00003H33V27.3333H32.6093ZM28.3333 1.33335H33C33.3682 1.33335 33.6667 1.63183 33.6667 2.00002V6.66668H32.6093L28.3333 2.3907V1.33335ZM7.6667 2.12269V33.4C7.18206 33.5035 6.72651 33.7137 6.33335 34.0154V3.99998C6.33681 3.15546 6.87043 2.40417 7.6667 2.12269ZM31.6666 38C31.6666 38.3682 31.3682 38.6667 31 38.6667H8.33331C7.22874 38.6667 6.33328 37.7712 6.33328 36.6666C6.33328 35.5621 7.22874 34.6666 8.33331 34.6666H27.1853C27.4216 35.0778 27.8591 35.3318 28.3333 35.3333H31.6666L31.6666 38ZM33.6667 33.3333C33.6667 33.7015 33.3682 34 33 34H28.3333V32.9426L32.6093 28.6667H33.6667V33.3333Z" fill="#469AF5"/>
<path d="M24.3335 11.9997H22.2668L21.7775 7.61506C22.1366 7.15305 22.3322 6.58491 22.3334 5.9997C22.3334 4.52695 21.1396 3.33301 19.6667 3.33301C18.194 3.33301 17 4.52689 17 5.9997C17.0023 6.58524 17.199 7.1535 17.5594 7.61506L17.07 11.9997H15C13.8955 11.9997 13 12.8952 13 13.9997C13 15.1043 13.8955 15.9998 15 15.9998H16.7834L16.7333 17.0071C16.7241 17.2383 16.78 17.4675 16.8946 17.6684L16.366 28.6204C16.3435 28.9974 16.4847 29.3657 16.7533 29.6311L18.7147 31.593C19.2147 32.1174 20.0452 32.1371 20.5696 31.637C20.5808 31.6263 20.5918 31.6155 20.6027 31.6044L22.5773 29.6297C22.8426 29.3685 22.9833 29.0062 22.964 28.6344L22.4367 17.6664C22.5513 17.4656 22.6072 17.2367 22.598 17.0057L22.55 15.9997H24.3333C25.4379 15.9997 26.3334 15.1042 26.3334 13.9997C26.3334 12.8951 25.438 11.9997 24.3335 11.9997ZM19.6667 4.66636C20.4031 4.66636 21.0001 5.26333 21.0001 5.9997C21.0001 6.73608 20.4031 7.33305 19.6667 7.33305C18.9304 7.33305 18.3334 6.73608 18.3334 5.9997C18.3334 5.26333 18.9304 4.66636 19.6667 4.66636ZM18.8001 8.51039C19.3578 8.71845 19.9718 8.71845 20.5294 8.51039L20.9214 11.9997H18.4121L18.8001 8.51039ZM19.6667 30.6617L17.6948 28.6983L18.1614 19.011L18.7868 19.6364C19.2682 20.1193 20.05 20.1204 20.5328 19.639L20.5355 19.6364L21.1615 19.0104L21.6281 28.6877L19.6667 30.6617ZM21.2668 17.0283L19.6668 18.625L18.0668 17.0283L18.1181 15.9997H21.2155L21.2668 17.0283ZM24.3335 14.6663H15.0001C14.6319 14.6663 14.3334 14.3679 14.3334 13.9997C14.3334 13.6315 14.6319 13.333 15.0001 13.333H24.3335C24.7017 13.333 25.0001 13.6315 25.0001 13.9997C25.0001 14.3679 24.7017 14.6663 24.3335 14.6663Z" fill="#B6D64F"/>
<path d="M27.6667 36H24.3334C23.9652 36 23.6667 36.2985 23.6667 36.6667C23.6667 37.0349 23.9652 37.3333 24.3334 37.3333H27.6667C28.0349 37.3333 28.3334 37.0349 28.3334 36.6667C28.3334 36.2985 28.0349 36 27.6667 36Z" fill="#469AF5"/>
<path d="M21.6666 36H10.9999C10.6317 36 10.3333 36.2985 10.3333 36.6667C10.3333 37.0349 10.6317 37.3333 10.9999 37.3333H21.6666C22.0348 37.3333 22.3333 37.0349 22.3333 36.6667C22.3333 36.2985 22.0348 36 21.6666 36Z" fill="#469AF5"/>
</g>
<defs>
<clipPath id="clip0_2045_3801">
<rect width="40" height="40" fill="white"/>
</clipPath>
</defs>
</svg>
