<svg width="40" height="40" viewBox="0 0 40 40" fill="none" xmlns="http://www.w3.org/2000/svg">
<g clip-path="url(#clip0_2045_3842)">
<path d="M16.3377 19.0908C15.8982 18.3496 15.4832 17.6496 15.5677 16.2891C15.5774 16.1324 15.5079 15.9812 15.3827 15.8866C15.2573 15.792 15.093 15.7665 14.9448 15.8185C13.4023 16.3618 12.1688 17.1796 11.3777 18.1835C10.647 19.1106 10.3534 20.1445 10.5723 21.0201C10.9302 22.4516 12.1727 23.2063 14.2651 23.2633C14.2693 23.2634 14.2736 23.2634 14.2778 23.2634C14.282 23.2634 14.286 23.2634 14.2902 23.2633C15.3853 23.2344 16.2718 22.8132 16.7223 22.1077C17.1113 21.4988 17.145 20.7459 16.8174 19.9877C16.6774 19.664 16.5047 19.3726 16.3377 19.0908ZM15.933 21.6036C15.654 22.0405 15.0511 22.3038 14.2777 22.3268C11.8469 22.2569 11.5713 21.1553 11.4807 20.793C11.2363 19.8151 12.0768 18.0521 14.6286 16.947C14.6945 18.1553 15.1356 18.8995 15.5321 19.5684C15.6913 19.8366 15.8415 20.0902 15.9577 20.3591C16.161 20.8296 16.1525 21.26 15.933 21.6036Z" fill="#B6D64F"/>
<path d="M26.8996 17.4736C27.2748 17.4736 27.6499 17.3806 28.0027 17.1906C29.139 16.5789 30.0769 14.9018 29.6106 12.5339C29.4171 11.5509 27.7788 8.42339 25.8598 8.12909C25.5714 8.08503 25.2818 8.20542 25.1102 8.44183C24.9385 8.67815 24.9132 8.9905 25.0446 9.25136C25.6428 10.4396 25.2432 12.2269 25.0388 12.8154C24.9771 12.9932 24.889 13.183 24.7958 13.3841C24.4144 14.2071 23.838 15.4507 25.0837 16.6772C25.6164 17.2017 26.2583 17.4736 26.8996 17.4736ZM26.2117 14.0403C26.3169 13.8134 26.4257 13.5788 26.513 13.3276C26.5385 13.2542 26.9355 12.0869 26.9185 10.7237C27.5006 11.4696 27.9954 12.4089 28.0794 12.8353C28.3764 14.344 27.8935 15.477 27.263 15.8164C26.9075 16.008 26.5424 15.9234 26.1786 15.5651C25.7588 15.1517 25.8101 14.9071 26.2117 14.0403Z" fill="#469AF5"/>
<path d="M39.6815 25.435L38.5464 24.6013C38.5098 24.0112 38.3479 22.9196 37.6966 21.8061C36.3321 19.4732 34.0911 18.4662 31.0352 18.8144C28.7483 19.0745 25.7368 19.8282 23.5326 20.44C23.3586 18.8631 22.8546 18.1576 22.2271 17.28C22.1765 17.2093 22.1245 17.1366 22.0712 17.0614L22.032 17.0061C21.5844 16.3761 21.2889 15.9598 21.8363 14.6477C23.1763 11.4366 21.9222 8.30738 20.0618 6.99355C18.9558 6.21246 17.463 5.80722 16.0194 5.41527C14.3922 4.97347 12.7096 4.51676 12.533 3.67472C12.5042 3.53722 12.5078 3.37949 12.7271 3.15746C13.4235 2.4523 15.3643 2.03168 16.8353 2.06902C17.1926 2.0991 17.4851 2.13199 17.6906 2.15762C18.3255 2.23683 18.5717 1.77105 18.613 1.51347C18.6797 1.09847 18.4 0.703865 17.9876 0.622772C17.7004 0.566209 17.3662 0.53074 17.0025 0.517459C15.1622 0.361912 11.655 0.271678 9.09091 1.45879C7.43856 2.22371 6.57247 3.5684 6.77427 5.05566C7.04278 7.03535 9.05466 8.61847 11.8997 9.0891C12.9525 9.26324 13.6915 9.88652 13.8283 10.7156C13.9568 11.4953 13.5074 12.2421 12.6258 12.7133C9.10544 14.5948 7.09317 17.0796 6.64489 20.0988C6.2552 22.7234 7.45739 25.1212 9.94333 26.6773C11.5075 27.6564 13.4625 28.2337 15.4483 28.3029C15.58 28.3075 15.711 28.3097 15.8415 28.3097C17.6207 28.3097 19.2725 27.8847 20.5656 27.0959C21.3752 27.3121 22.4138 27.2565 23.7575 26.9311C25.1557 26.6346 26.8445 26.3212 27.2468 26.309C27.2815 26.3189 27.3105 26.3286 27.3345 26.3375C27.2573 26.5011 27.0278 26.8589 26.3531 27.4523C25.7577 27.9758 25.0937 28.4346 24.7927 28.6153C23.0543 29.6584 18.5611 31.7177 17.7393 31.7801C17.0212 31.7726 12.1597 30.2524 7.86427 28.7835C7.84255 28.776 7.82052 28.7696 7.79825 28.7641C6.17169 28.3636 4.82458 29.2004 4.19442 31.0023C3.68505 32.4588 4.10856 34.3364 5.89817 35.1046C6.79684 35.4983 14.7568 38.9521 17.4916 38.9851C17.495 38.9852 17.4985 38.9852 17.5021 38.9852C18.6263 38.985 27.1325 36.9413 31.2754 35.4184L38.4935 39.68C38.618 39.7535 38.7547 39.7885 38.8894 39.7885C39.1565 39.7884 39.4165 39.6513 39.5622 39.4047C39.7812 39.0336 39.658 38.5551 39.2869 38.3361L31.7473 33.8847C31.542 33.7635 31.2929 33.743 31.0705 33.8283C27.0865 35.3601 18.3947 37.4207 17.5104 37.4246C15.463 37.4 8.88591 34.7096 6.51903 33.6729C5.13919 33.0806 5.64528 31.5811 5.66755 31.5175C6.18739 30.0312 7.06224 30.1923 7.3927 30.2717C7.68411 30.3711 9.82356 31.0987 12.053 31.8102C17.0075 33.3911 17.5647 33.3558 17.8325 33.3382C19.1959 33.2507 24.3334 30.711 25.5957 29.9536C25.9259 29.7554 26.7499 29.2 27.5051 28.5161C28.5782 27.5441 29.0271 26.7542 28.9179 26.0299C28.8643 25.6739 28.6171 25.0382 27.5641 24.7789C27.4001 24.7386 27.0164 24.6441 23.4226 25.4069C23.4152 25.4086 23.4079 25.4102 23.4004 25.4119C22.0554 25.7386 21.1207 25.7496 20.6217 25.445C20.4559 25.3437 20.2203 25.1458 20.089 24.5989C19.8828 23.7403 20.2117 23.0313 22.4872 22.362C24.5673 21.7502 28.4667 20.6773 31.2118 20.365C33.6304 20.0903 35.3113 20.819 36.3496 22.594C37.0439 23.7811 36.9954 24.9478 36.995 24.9552C36.9791 25.2197 37.0986 25.4743 37.3121 25.6311L38.7579 26.6929C39.1051 26.9479 39.5936 26.8732 39.8486 26.5259C40.1036 26.1784 40.0289 25.69 39.6815 25.435ZM19.4917 22.0779C18.6151 22.8225 18.2968 23.8204 18.5714 24.9633C18.6787 25.4102 18.851 25.7938 19.0854 26.1125C16.6921 27.1776 13.2504 26.9064 10.7714 25.3546C9.6338 24.6425 7.78552 23.0425 8.18856 20.3281C8.56036 17.8245 10.3007 15.7256 13.3614 14.0898C14.8381 13.3006 15.607 11.9103 15.368 10.4618C15.1228 8.97488 13.8613 7.83176 12.1543 7.54933C9.70442 7.14418 8.46364 5.89957 8.32067 4.84597C8.21278 4.05058 8.71919 3.35058 9.74661 2.87496C10.2533 2.64051 10.8076 2.46355 11.3823 2.33176C11.0104 2.82824 10.8802 3.39699 11.0056 3.99488C11.3783 5.77246 13.5298 6.35644 15.6105 6.92137C16.9233 7.27769 18.2808 7.64621 19.1615 8.26824C20.2501 9.03715 21.548 11.2859 20.396 14.0467C19.5151 16.1577 20.2343 17.1704 20.7596 17.9098L20.7977 17.9636C20.8523 18.0407 20.9056 18.1152 20.9575 18.1878C21.5847 19.065 21.9011 19.5081 22.006 20.8769C21.21 21.1129 20.2162 21.4625 19.4917 22.0779Z" fill="#469AF5"/>
<path d="M33.6936 26.0571V26.9393C33.6936 27.1979 33.9032 27.4075 34.1618 27.4075C34.4204 27.4075 34.63 27.1979 34.63 26.9393V26.0571C34.63 25.7985 34.4204 25.5889 34.1618 25.5889C33.9032 25.5889 33.6936 25.7986 33.6936 26.0571Z" fill="#469AF5"/>
<path d="M31.6675 29.5014V30.3835C31.6675 30.6421 31.8771 30.8517 32.1357 30.8517C32.3943 30.8517 32.6039 30.6421 32.6039 30.3835V29.5014C32.6039 29.2428 32.3943 29.0332 32.1357 29.0332C31.8771 29.0332 31.6675 29.2428 31.6675 29.5014Z" fill="#469AF5"/>
<path d="M35.8218 32.2641V33.1463C35.8218 33.4049 36.0314 33.6145 36.29 33.6145C36.5486 33.6145 36.7582 33.4049 36.7582 33.1463V32.2641C36.7582 32.0055 36.5486 31.7959 36.29 31.7959C36.0314 31.7959 35.8218 32.0056 35.8218 32.2641Z" fill="#469AF5"/>
<path d="M15.9617 14.823C15.7925 14.823 15.622 14.7683 15.4788 14.6552C15.1405 14.3882 15.0827 13.8975 15.3497 13.5592C15.6563 13.1707 15.8874 12.7496 16.0365 12.3075C16.1742 11.8992 16.6169 11.6798 17.0253 11.8175C17.4337 11.9553 17.6531 12.398 17.5153 12.8063C17.3089 13.4184 16.9924 13.997 16.5748 14.5261C16.4208 14.7212 16.1924 14.823 15.9617 14.823Z" fill="#469AF5"/>
<path d="M16.8436 10.5072C16.5395 10.5072 16.2506 10.3285 16.1246 10.0308C16.0719 9.9063 16.0118 9.78271 15.9459 9.66341C15.7377 9.28607 15.8747 8.81138 16.2521 8.60318C16.6293 8.3949 17.1041 8.53193 17.3124 8.90927C17.4043 9.07576 17.4882 9.24849 17.5618 9.42255C17.7298 9.81943 17.5443 10.2773 17.1474 10.4453C17.0481 10.4872 16.945 10.5072 16.8436 10.5072Z" fill="#469AF5"/>
<path d="M2.57441 8.52002L1.93043 10.3309C1.90285 10.4084 1.84824 10.4699 1.77941 10.5009L0.170508 11.2257C-0.0568359 11.3281 -0.0568359 11.6903 0.170508 11.7927L1.77941 12.5175C1.84832 12.5485 1.90285 12.61 1.93043 12.6875L2.57441 14.4984C2.66535 14.7542 2.98715 14.7542 3.07816 14.4984L3.72215 12.6875C3.74973 12.61 3.80434 12.5485 3.87324 12.5175L5.48215 11.7927C5.70941 11.6903 5.70941 11.3281 5.48215 11.2257L3.87324 10.5009C3.80434 10.4699 3.74973 10.4084 3.72215 10.3309L3.07809 8.52002C2.98715 8.26416 2.66535 8.26416 2.57441 8.52002Z" fill="#B6D64F"/>
<path d="M23.6582 0.884512L23.1804 2.22779C23.16 2.28529 23.1195 2.33084 23.0684 2.35389L21.875 2.89154C21.7064 2.96748 21.7064 3.23615 21.875 3.31209L23.0684 3.84975C23.1195 3.87279 23.16 3.91834 23.1804 3.97584L23.6582 5.31912C23.7257 5.50889 23.9644 5.50889 24.0319 5.31912L24.5096 3.97584C24.5301 3.91834 24.5705 3.87279 24.6216 3.84975L25.8151 3.31209C25.9837 3.23615 25.9837 2.96748 25.8151 2.89154L24.6216 2.35389C24.5705 2.33084 24.5301 2.28529 24.5096 2.22779L24.0319 0.884512C23.9644 0.694746 23.7257 0.694746 23.6582 0.884512Z" fill="#B6D64F"/>
<path d="M3.36164 25.9516C3.77016 25.2907 3.56554 24.4237 2.90461 24.0152C2.24368 23.6067 1.37672 23.8113 0.968203 24.4722C0.559685 25.1332 0.764305 26.0001 1.42523 26.4086C2.08616 26.8172 2.95312 26.6125 3.36164 25.9516Z" fill="#469AF5"/>
<path d="M4.73037 1.04966C4.85869 0.740083 4.71175 0.385099 4.40218 0.256779C4.0926 0.128459 3.73762 0.275396 3.6093 0.584972C3.48098 0.894547 3.62791 1.24953 3.93749 1.37785C4.24706 1.50617 4.60205 1.35923 4.73037 1.04966Z" fill="#469AF5"/>
</g>
<defs>
<clipPath id="clip0_2045_3842">
<rect width="40" height="40" fill="white"/>
</clipPath>
</defs>
</svg>
