<svg width="60" height="40" viewBox="0 0 60 40" fill="none" xmlns="http://www.w3.org/2000/svg">
<path d="M59.4001 11.4842C59.2004 11.391 58.9742 11.3582 58.7534 11.3903C58.5325 11.4223 58.328 11.5178 58.1685 11.6631L45.2309 23.4809L30.9331 0.451681C30.8285 0.31226 30.6892 0.198371 30.527 0.119723C30.3647 0.0410749 30.1844 0 30.0013 0C29.8183 0 29.638 0.0410749 29.4757 0.119723C29.3135 0.198371 29.1741 0.31226 29.0696 0.451681L14.7718 23.4809L1.83422 11.6631C1.67492 11.513 1.4683 11.4137 1.24422 11.3796C1.02013 11.3455 0.790166 11.3784 0.58754 11.4735C0.384914 11.5687 0.220113 11.7211 0.116937 11.9088C0.0137604 12.0965 -0.0224503 12.3098 0.0135337 12.5179L4.29751 39.1551C4.33624 39.3921 4.46596 39.6081 4.66277 39.7634C4.85958 39.9186 5.11022 40.0026 5.3685 39.9999H54.6342C54.8925 40.0026 55.1431 39.9186 55.3399 39.7634C55.5367 39.6081 55.6665 39.3921 55.7052 39.1551L59.9892 12.5179C60.0213 12.31 59.9816 12.0979 59.8758 11.9122C59.7699 11.7265 59.6034 11.5767 59.4001 11.4842Z" fill="#273257"/>
</svg>
