<svg width="14" height="17" viewBox="0 0 14 17" fill="none" xmlns="http://www.w3.org/2000/svg">
<path d="M13.2157 16.3633C13.6482 16.3633 14 16.0195 14 15.5969L14 12.5889C13.9927 11.5934 12.4461 11.5862 12.4388 12.5889V14.8306H1.56126V12.5889C1.54659 11.5862 0.0146744 11.5862 0 12.5889V15.5969C0 16.0195 0.351818 16.3633 0.784302 16.3633H13.2157Z" fill="#152045"/>
<path d="M11.4639 9.3087C12.1822 8.59962 11.0827 7.52532 10.3571 8.22723L7.7843 10.7411V1.12963C7.7843 0.707087 7.43248 0.363281 7 0.363281C6.56756 0.363281 6.2157 0.707087 6.2157 1.12963V10.7411L3.64296 8.22723C3.33507 7.93356 2.84398 7.93356 2.53614 8.22723C2.2356 8.52802 2.2356 9.00786 2.53614 9.30869L6.45026 13.126C6.74347 13.4197 7.25657 13.4269 7.54974 13.126L11.4639 9.3087Z" fill="#152045"/>
</svg>
