<svg width="26" height="24" viewBox="0 0 26 24" fill="none" xmlns="http://www.w3.org/2000/svg">
<path fill-rule="evenodd" clip-rule="evenodd" d="M22.5995 9.33466C23.9353 9.33466 25.0426 10.2978 25.1226 11.5283C25.1675 12.1401 24.9623 12.7351 24.5451 13.2046C24.3378 13.4372 24.0863 13.6287 23.8066 13.7714C23.9933 14.1626 24.0722 14.6396 24.0365 15.1797C23.9799 16.0732 23.3798 16.8267 22.5435 17.1723C22.7017 17.5463 22.7669 17.9924 22.734 18.4923C22.6811 19.3254 22.1561 20.0371 21.4074 20.4098C21.5896 20.7982 21.6665 21.2703 21.6315 21.8046C21.5533 23.0348 20.4453 24 19.1084 24H13.5465C11.6675 24 9.87904 23.5937 8.44404 23.1885C8.10914 23.6781 7.55291 24 6.92394 24H2.03183C1.05355 24 0.257812 23.1892 0.257812 22.193V9.7399C0.257812 8.74343 1.05355 7.93329 2.03183 7.93329H7.69806C7.97463 7.93329 8.22443 8.04138 8.41556 8.21397C9.13409 8.17657 11.7865 7.56544 13.3983 0.773042C13.6374 -0.229262 14.9183 -0.0926928 15.6352 0.269317C16.3925 0.651572 16.8512 1.45554 17.0626 2.24991C17.356 3.52054 17.5437 5.4476 16.8073 7.53834C16.5853 8.1625 16.1077 8.79765 15.6365 9.34804C17.042 9.34221 19.3682 9.33775 22.5995 9.33466ZM2.03183 22.6275H6.92394C7.1885 22.6275 7.40364 22.3965 7.40364 22.1127V9.30584H2.03183C1.81017 9.30584 1.63036 9.50074 1.63036 9.7399V22.193C1.63036 22.4329 1.81017 22.6275 2.03183 22.6275ZM22.2419 12.6895C22.7148 12.6895 23.1749 12.6785 23.5194 12.2918C23.6388 12.1576 23.7764 11.9332 23.7534 11.6268C23.6824 11.0582 23.153 10.7072 22.6002 10.7072C19.3524 10.71 14.4201 10.7192 14.147 10.7302C13.7489 10.771 13.4058 10.4361 13.4144 10.0426C13.4217 9.71435 13.6904 9.4381 13.9237 9.19827C13.9748 9.14573 14.0242 9.09494 14.0687 9.04574L14.0701 9.04429C14.5583 8.50624 15.2946 7.69494 15.5137 7.07991C16.1399 5.30211 15.9776 3.65128 15.7309 2.58035C15.5689 1.97334 15.2629 1.57392 14.6586 1.40064C12.9913 8.10897 10.1707 9.36623 8.77619 9.55735V21.8575C10.123 22.2394 11.8109 22.6278 13.5461 22.6278H19.1077C19.9398 22.6278 20.4652 21.8966 20.2064 21.1056C20.1028 20.7882 19.9185 20.7234 19.6073 20.6877C19.2364 20.6451 18.921 20.4074 18.921 20.0014C18.921 19.6226 19.2285 19.3151 19.6073 19.3151H20.2112C20.8148 19.3151 21.3319 18.9065 21.3638 18.4038C21.3899 18.0085 21.3185 17.6904 21.1682 17.5295C21.0531 17.4067 20.9044 17.3948 20.7531 17.3827C20.6773 17.3766 20.6008 17.3705 20.5276 17.3503C20.2346 17.2694 20.0239 16.9925 20.0239 16.6884C20.0239 16.0835 20.5798 16.0022 21.0454 16.0022C21.0795 16.0022 21.1137 16.0023 21.1478 16.0025C21.5566 16.0044 21.9627 16.0063 22.3047 15.7349C22.7058 15.4164 22.8616 14.598 22.4622 14.2079C22.3454 14.0937 22.2022 14.0821 22.0558 14.0703C21.9804 14.0642 21.9041 14.058 21.8302 14.0377C21.5371 13.9567 21.3264 13.6798 21.3264 13.3758C21.3264 12.8371 21.8007 12.6895 22.2419 12.6895ZM3.19022 19.7036C3.19022 20.4602 3.80615 21.0761 4.56276 21.0761C5.31938 21.0761 5.93531 20.4602 5.93531 19.7036C5.93531 18.947 5.31938 18.331 4.56276 18.331C3.80615 18.331 3.19022 18.947 3.19022 19.7036Z" fill="#B6D64F"/>
</svg>
