<svg width="25" height="25" viewBox="0 0 25 25" fill="none" xmlns="http://www.w3.org/2000/svg">
<path d="M9.97878 20.7894C9.25409 20.7894 9.31997 20.5259 9.12233 19.8671L7.01416 12.9497L23.1549 3.46289" fill="#E9E9E9"/>
<path d="M9.97852 20.7898C10.4397 20.7898 10.7032 20.5263 11.0326 20.2627L13.9972 17.4299L10.3079 15.1899" fill="#E9E9E9"/>
<path d="M10.3082 15.1897L19.2021 21.7119C20.1244 22.3048 20.9149 21.9754 21.1785 20.7896L24.8019 3.79244C25.1313 2.34307 24.209 1.68427 23.2208 2.14543L2.07316 10.3146C0.689674 10.8416 0.689674 11.6981 1.80964 12.0275L7.27771 13.7404L19.795 5.76885C20.3879 5.43945 20.9149 5.57121 20.5197 6.03237" fill="#E9E9E9"/>
</svg>
