<svg width="40" height="40" viewBox="0 0 40 40" fill="none" xmlns="http://www.w3.org/2000/svg">
<path fill-rule="evenodd" clip-rule="evenodd" d="M39.3477 39.9999H8.592C8.4547 39.9999 8.3245 39.9354 8.24173 39.8243C8.15988 39.7133 8.13432 39.5697 8.17437 39.4377C8.40007 38.6873 8.60012 37.9431 8.79297 37.2243C10.0603 32.5093 11.1546 28.4375 18.2486 28.3192H18.2558C18.4943 28.3192 18.6889 28.5094 18.6925 28.7486C18.6972 28.9896 18.5042 29.188 18.2631 29.1925C11.8279 29.2999 10.909 32.7186 9.63719 37.451C9.49001 37.9976 9.3397 38.5572 9.176 39.1266H38.7635C38.5972 38.5499 38.4433 37.9822 38.2941 37.4291C37.0161 32.6868 36.0917 29.2607 29.5691 29.1907C29.3282 29.1879 29.1351 28.9906 29.1379 28.7494C29.1398 28.5094 29.3353 28.3174 29.5736 28.3174C29.5756 28.3173 29.5772 28.3174 29.5791 28.3174C36.7623 28.3947 37.8629 32.4757 39.1374 37.2016C39.3332 37.9276 39.5359 38.6781 39.7661 39.4368C39.8062 39.5697 39.7806 39.7124 39.6987 39.8234C39.6161 39.9344 39.4859 39.9999 39.3477 39.9999Z" fill="#469AF5"/>
<path fill-rule="evenodd" clip-rule="evenodd" d="M17.5135 12.9817L13.7418 14.6592C13.5907 14.7266 13.6162 14.8667 13.6343 14.924C13.6737 15.0495 13.8099 15.1332 13.9736 15.1332H33.9656C34.1303 15.1332 34.2667 15.0495 34.3058 14.924C34.3242 14.8667 34.3495 14.7266 34.1984 14.6592L30.427 12.9817H17.5135ZM33.9656 16.0065H13.9736C13.4262 16.0065 12.9547 15.6763 12.801 15.1851C12.631 14.6446 12.8774 14.087 13.3869 13.8614L17.2434 12.1466C17.2988 12.1211 17.3596 12.1084 17.4205 12.1084H30.5196C30.5806 12.1084 30.6406 12.1211 30.697 12.1466L34.5534 13.8614C35.0618 14.088 35.3083 14.6446 35.1391 15.1851C34.9855 15.6763 34.5142 16.0065 33.9656 16.0065Z" fill="#469AF5"/>
<path fill-rule="evenodd" clip-rule="evenodd" d="M29.4681 10.7561H18.4724C18.2304 10.7561 18.0356 10.5606 18.0356 10.3195C18.0358 10.0784 18.2303 9.88281 18.4723 9.88281H29.4681C29.7092 9.88281 29.9047 10.0784 29.9047 10.3195C29.9047 10.5606 29.7091 10.7561 29.4681 10.7561Z" fill="#469AF5"/>
<path fill-rule="evenodd" clip-rule="evenodd" d="M30.5197 12.9816C30.356 12.9816 30.1994 12.8897 30.1247 12.7314L24.8094 1.48007C24.6247 1.08883 24.3262 0.87328 23.9697 0.87328C23.614 0.87328 23.3156 1.08892 23.1308 1.48007L17.8155 12.7314C17.7127 12.9497 17.4525 13.0435 17.2341 12.9398C17.0159 12.837 16.9229 12.5767 17.0258 12.3584L22.3412 1.1071C22.6687 0.413849 23.2774 1.54237e-08 23.9697 1.54237e-08C24.663 -9.22585e-05 25.2714 0.413849 25.599 1.1071L30.9145 12.3584C31.0173 12.5767 30.9244 12.837 30.706 12.9398C30.6462 12.9688 30.5824 12.9816 30.5197 12.9816Z" fill="#469AF5"/>
<path fill-rule="evenodd" clip-rule="evenodd" d="M27.1178 5.77995C26.8767 5.77995 26.681 5.58433 26.681 5.34322C26.681 5.1022 26.8765 4.90658 27.1176 4.90658L30.3399 4.90566C30.6228 4.90566 30.7847 4.79558 30.8101 4.7165C30.8238 4.67184 30.741 4.55816 30.5482 4.46173L25.0081 1.68345C24.7926 1.57522 24.706 1.31233 24.8142 1.09668C24.9217 0.881963 25.1845 0.794672 25.4 0.903002L30.9395 3.68118C31.5244 3.97406 31.8 4.48452 31.6426 4.98123C31.488 5.46604 30.9775 5.77903 30.3398 5.77903L27.1178 5.77995Z" fill="#469AF5"/>
<path fill-rule="evenodd" clip-rule="evenodd" d="M18.2877 22.8137C18.0994 22.8137 17.9246 22.6909 17.8692 22.5007C17.6956 21.9167 17.6626 21.299 17.6535 20.8259L17.5509 15.5778C17.5453 15.3368 17.7372 15.1375 17.9783 15.133C18.2203 15.1256 18.4186 15.3203 18.4232 15.5614L18.527 20.8087C18.5352 21.2262 18.5624 21.7684 18.7061 22.2524C18.7745 22.4844 18.6424 22.7273 18.4114 22.7955C18.3704 22.8082 18.3286 22.8137 18.2877 22.8137Z" fill="#469AF5"/>
<path fill-rule="evenodd" clip-rule="evenodd" d="M18.0706 20.926C17.0089 20.926 16.0837 20.1 15.637 19.2767C15.2159 18.5026 15.1867 17.7365 15.557 17.1762C15.8482 16.735 16.5185 16.2401 18.0532 16.3866C18.2936 16.4093 18.469 16.6222 18.4462 16.8623C18.4236 17.1025 18.2097 17.2781 17.9704 17.2553C17.109 17.1735 16.5113 17.3163 16.2857 17.6575C16.102 17.9359 16.1464 18.3852 16.4039 18.8601C16.7269 19.4541 17.4018 20.0527 18.0705 20.0527H18.0842C18.3235 20.0527 18.5181 20.2465 18.5208 20.4858C18.5228 20.7268 18.3289 20.9242 18.0878 20.9261C18.0815 20.926 18.076 20.9261 18.0706 20.926Z" fill="#469AF5"/>
<path fill-rule="evenodd" clip-rule="evenodd" d="M29.6527 22.8136C29.6117 22.8136 29.5699 22.8081 29.528 22.7954C29.2972 22.7272 29.165 22.4843 29.2342 22.2532C29.3772 21.7683 29.4052 21.2261 29.4134 20.8086L29.5164 15.5614C29.5208 15.3194 29.719 15.1274 29.962 15.1329C30.2031 15.1375 30.3941 15.3367 30.3895 15.5777L30.2868 20.8259C30.2778 21.298 30.2449 21.9157 30.0711 22.5006C30.0148 22.6908 29.8409 22.8136 29.6527 22.8136Z" fill="#469AF5"/>
<path fill-rule="evenodd" clip-rule="evenodd" d="M29.8704 20.926C29.8649 20.926 29.8584 20.9261 29.853 20.9261C29.6119 20.9243 29.4181 20.7269 29.4199 20.4858C29.422 20.2465 29.6173 20.0527 29.8566 20.0527H29.8693C30.5381 20.0527 31.213 19.4542 31.536 18.8601C31.7945 18.3853 31.8388 17.9359 31.6551 17.6575C31.4295 17.3164 30.8309 17.1735 29.9703 17.2554C29.7302 17.2772 29.5164 17.1026 29.4936 16.8624C29.4709 16.6222 29.6474 16.4094 29.8875 16.3866C31.4224 16.2401 32.0917 16.735 32.3838 17.1762C32.7541 17.7366 32.7249 18.5026 32.3037 19.2767C31.8562 20.1001 30.9318 20.9261 29.8704 20.926Z" fill="#469AF5"/>
<path fill-rule="evenodd" clip-rule="evenodd" d="M22.1626 35.8692C22.0688 35.8692 21.9751 35.8391 21.8977 35.7801C21.7723 35.6846 21.7085 35.5281 21.7304 35.3716C22.1681 32.2877 21.1354 31.6845 19.9401 30.985C18.3637 30.0634 16.575 29.0181 18.0096 23.0104C18.0661 22.7756 18.3016 22.631 18.5363 22.6874C18.7701 22.7438 18.9157 22.9785 18.8593 23.2133C17.575 28.5905 18.9384 29.3875 20.3812 30.2317C21.5668 30.9249 22.8985 31.7036 22.6792 34.7184C25.9698 33.1437 28.4759 30.8039 29.1564 28.6278C29.6687 26.9903 29.7067 25.1337 29.2719 23.1096C29.221 22.8739 29.3711 22.6411 29.6067 22.591C29.8424 22.54 30.0752 22.6902 30.1252 22.9257C30.5928 25.0991 30.5473 27.1058 29.9897 28.889C29.02 31.9929 25.3992 34.5118 22.3353 35.8337C22.2799 35.8574 22.2216 35.8692 22.1626 35.8692Z" fill="#469AF5"/>
<path fill-rule="evenodd" clip-rule="evenodd" d="M18.6565 22.7366C19.8609 23.2951 21.22 23.4407 22.1715 23.0477C22.8612 22.7629 23.2987 22.2225 23.4742 21.4375C21.8005 21.0463 20.9243 21.5567 20 22.0952C19.5791 22.3408 19.1494 22.591 18.6565 22.7366ZM20.9308 24.1421C19.6018 24.1421 18.1124 23.6308 16.9616 22.7111C16.8043 22.5855 16.7533 22.3691 16.8379 22.1871C16.9216 22.0042 17.1199 21.9033 17.3173 21.9415C18.2262 22.1189 18.8147 21.775 19.5606 21.341C20.5632 20.7561 21.8113 20.0293 24.0928 20.6979C24.2967 20.758 24.4285 20.9553 24.404 21.1664C24.2158 22.8184 23.2668 23.5398 22.5045 23.8546C22.0353 24.0484 21.4974 24.1421 20.9308 24.1421Z" fill="#469AF5"/>
<path fill-rule="evenodd" clip-rule="evenodd" d="M24.4658 21.4375C24.6422 22.2225 25.0798 22.7629 25.7693 23.0477C26.72 23.4406 28.0801 23.296 29.2845 22.7366C28.7906 22.591 28.3621 22.3408 27.94 22.0952C27.0166 21.5567 26.1396 21.0463 24.4658 21.4375ZM27.0094 24.1421C26.4427 24.1421 25.9049 24.0484 25.4355 23.8546C24.6731 23.5398 23.7252 22.8184 23.5359 21.1664C23.5123 20.9553 23.6434 20.758 23.8471 20.6979C26.1297 20.0293 27.3778 20.7561 28.3802 21.341C29.1255 21.775 29.7139 22.1189 30.6236 21.9415C30.8203 21.9033 31.0184 22.0042 31.1031 22.1871C31.1877 22.3691 31.1358 22.5855 30.9793 22.7111C29.8286 23.6308 28.3384 24.1421 27.0094 24.1421Z" fill="#469AF5"/>
<path fill-rule="evenodd" clip-rule="evenodd" d="M14.9638 27.4113C14.7427 27.4113 14.5052 27.4022 14.2496 27.3822C14.0449 27.3658 13.8784 27.2103 13.8502 27.0065C13.822 26.8037 13.9394 26.608 14.1322 26.5371C14.2979 26.4761 14.7836 26.0868 14.8882 23.6596C14.781 23.7324 14.6653 23.7934 14.5425 23.8425C13.7484 24.16 12.7112 23.9726 11.3712 23.2694C11.1938 23.1765 11.1029 22.9756 11.1492 22.7809C11.1957 22.5862 11.3694 22.4488 11.5687 22.4461C11.8745 22.4424 12.9996 21.9285 14.6853 15.4595C14.7464 15.2257 14.9845 15.0856 15.2174 15.1474C15.4514 15.2075 15.5913 15.4468 15.5304 15.6797C14.3416 20.2436 13.3726 22.1241 12.5866 22.8663C13.2764 23.1284 13.832 23.1857 14.2178 23.032C14.5407 22.9018 14.7735 22.6153 14.93 22.1541C14.9974 21.9521 15.2011 21.8293 15.4112 21.8629C15.6214 21.8957 15.777 22.0758 15.7797 22.2887C15.8044 24.3437 15.6359 25.7238 15.2466 26.5334C16.3985 26.4807 16.9332 26.0804 17.7147 25.4218C17.8986 25.2662 18.174 25.2898 18.3296 25.4745C18.4851 25.6583 18.4615 25.934 18.2778 26.0894C17.3236 26.8945 16.5793 27.4113 14.9638 27.4113Z" fill="#469AF5"/>
<path fill-rule="evenodd" clip-rule="evenodd" d="M32.9407 27.4137C31.3259 27.4137 30.639 26.9125 29.7265 26.1428C29.5429 25.9882 29.519 25.7126 29.6746 25.5279C29.8303 25.3432 30.105 25.3205 30.2896 25.4751C31.0576 26.1237 31.5568 26.495 32.6958 26.5377C32.3048 25.7289 32.1354 24.348 32.16 22.2893C32.1629 22.0764 32.3182 21.8963 32.5284 21.8635C32.7386 21.8299 32.9423 21.9527 33.0106 22.1547C33.1671 22.6159 33.3999 22.9025 33.7228 23.0326C34.1086 23.1863 34.6644 23.129 35.354 22.8669C34.5682 22.1247 33.5991 20.2442 32.4101 15.6803C32.3493 15.4474 32.4893 15.2081 32.7221 15.148C32.956 15.0871 33.1943 15.2272 33.2553 15.4601C34.94 21.9291 36.0663 22.443 36.371 22.4467C36.5712 22.4494 36.744 22.5868 36.7913 22.7815C36.8379 22.9761 36.7467 23.1772 36.5694 23.27C35.2295 23.9732 34.1914 24.1606 33.3981 23.8431C33.2753 23.794 33.1598 23.733 33.0515 23.6602C33.157 26.0874 33.6428 26.4767 33.8084 26.5377C34.0014 26.6086 34.1177 26.8043 34.0894 27.0071C34.0613 27.2109 33.8958 27.3664 33.691 27.3828C33.4201 27.4037 33.1707 27.4137 32.9407 27.4137Z" fill="#469AF5"/>
<path fill-rule="evenodd" clip-rule="evenodd" d="M23.9701 7.57646C24.0274 7.57646 24.0846 7.58735 24.1382 7.61014L24.7196 7.85208L24.6697 7.22443C24.6596 7.10798 24.6968 6.99329 24.7732 6.90507L25.1825 6.42654L24.5704 6.28103C24.4568 6.25371 24.3593 6.18275 24.2984 6.08365L23.9701 5.54597L23.6415 6.08365C23.5815 6.18275 23.4842 6.25371 23.3705 6.28103L22.7583 6.42654L23.1677 6.90507C23.2432 6.99329 23.2803 7.10798 23.2713 7.22443L23.2213 7.85208L23.8026 7.61014C23.8562 7.58735 23.9135 7.57646 23.9701 7.57646ZM25.2119 8.96647C25.1554 8.96647 25.0979 8.95558 25.0443 8.93279L23.9701 8.48619L22.8966 8.93279C22.7557 8.99102 22.5945 8.97284 22.4716 8.88278C22.3489 8.79364 22.2806 8.64628 22.2934 8.49532L22.3862 7.33535L21.6293 6.4521C21.5302 6.33648 21.4992 6.17731 21.5455 6.03272C21.593 5.88803 21.712 5.77887 21.8594 5.74344L22.9912 5.47317L23.5979 4.48067C23.6771 4.35066 23.818 4.27148 23.97 4.27148C24.123 4.27148 24.2638 4.35066 24.3429 4.48067L24.9498 5.47317L26.0806 5.74335C26.2288 5.77887 26.348 5.88803 26.3943 6.03272C26.4418 6.17731 26.4098 6.33657 26.3115 6.4521L25.5547 7.33535L25.6476 8.49532C25.6593 8.64628 25.592 8.79364 25.4682 8.88278C25.3928 8.93833 25.3027 8.96647 25.2119 8.96647Z" fill="#B6D64F"/>
<path fill-rule="evenodd" clip-rule="evenodd" d="M16.7097 40.0003C16.4686 40.0003 16.2729 39.8056 16.2729 39.5636V34.4456C16.2729 34.2045 16.4685 34.0098 16.7096 34.0098C16.9508 34.0098 17.1462 34.2045 17.1462 34.4456L17.1463 39.5636C17.1463 39.8056 16.9506 40.0003 16.7097 40.0003Z" fill="#469AF5"/>
<path fill-rule="evenodd" clip-rule="evenodd" d="M31.2303 40.0003C30.9892 40.0003 30.7944 39.8056 30.7944 39.5636L30.7945 34.4456C30.7945 34.2045 30.9891 34.0098 31.2302 34.0098C31.4723 34.0098 31.6678 34.2045 31.6678 34.4456L31.6679 39.5636C31.6679 39.8056 31.4722 40.0003 31.2303 40.0003Z" fill="#469AF5"/>
<path fill-rule="evenodd" clip-rule="evenodd" d="M22.5496 18.3628C22.4451 18.3628 22.3394 18.3256 22.2557 18.2492C21.8757 17.9026 21.3014 17.9026 20.9212 18.2492C20.7429 18.412 20.4673 18.3993 20.3044 18.2209C20.1426 18.0426 20.1552 17.7661 20.3335 17.6042C21.0487 16.951 22.1284 16.951 22.8443 17.6042C23.0227 17.7661 23.0353 18.0426 22.8726 18.2209C22.7871 18.3156 22.6687 18.3628 22.5496 18.3628Z" fill="#B6D64F"/>
<path fill-rule="evenodd" clip-rule="evenodd" d="M27.3132 18.3628C27.2078 18.3628 27.1021 18.3256 27.0184 18.2492C26.6381 17.9026 26.065 17.9026 25.6839 18.2492C25.5067 18.412 25.2299 18.3993 25.0671 18.2209C24.9053 18.0426 24.9179 17.7661 25.0962 17.6042C25.8123 16.951 26.891 16.951 27.607 17.6042C27.7854 17.7661 27.7981 18.0426 27.6352 18.2209C27.5499 18.3156 27.4315 18.3628 27.3132 18.3628Z" fill="#B6D64F"/>
<path fill-rule="evenodd" clip-rule="evenodd" d="M5.91916 40.0002H5.03416C4.40264 40.0002 3.88867 39.4863 3.88867 38.8549V27.2032C3.88867 26.9622 4.08429 26.7666 4.32531 26.7666C4.56642 26.7666 4.76204 26.9622 4.76204 27.2032L4.76214 38.8549C4.76214 39.0023 4.88661 39.1269 5.03398 39.1269H5.91916C6.06652 39.1269 6.19118 39.0023 6.19118 38.8549V27.2032C6.19118 26.9622 6.3868 26.7666 6.62782 26.7666C6.86893 26.7666 7.06446 26.9622 7.06446 27.2032L7.06465 38.8549C7.06465 39.4863 6.5505 40.0002 5.91916 40.0002Z" fill="#469AF5"/>
<path fill-rule="evenodd" clip-rule="evenodd" d="M7.07284 27.6397H3.87979C3.18202 27.6397 2.61426 27.0721 2.61426 26.3743L2.61444 24.6359C2.61444 24.3947 2.80988 24.1992 3.0509 24.1992C3.2921 24.1992 3.48754 24.3947 3.48754 24.6359L3.48763 26.3743C3.48763 26.5899 3.66406 26.7664 3.87961 26.7664H7.07284C7.28941 26.7664 7.46574 26.5899 7.46574 26.3743L7.46584 24.6359C7.46584 24.3947 7.66127 24.1992 7.90238 24.1992C8.14359 24.1992 8.33912 24.3947 8.33912 24.6359L8.3393 26.3743C8.3393 27.0721 7.77145 27.6397 7.07284 27.6397Z" fill="#469AF5"/>
<path fill-rule="evenodd" clip-rule="evenodd" d="M5.47622 16.2317C3.0963 16.2317 1.16039 18.1675 1.16039 20.5483C1.16039 22.9281 3.0963 24.8639 5.47613 24.8639C7.85698 24.8639 9.79271 22.9281 9.79271 20.5483C9.79289 18.1675 7.8568 16.2317 5.47622 16.2317ZM5.47622 25.7373C2.61509 25.7373 0.287109 23.4093 0.287109 20.5483C0.287202 17.6863 2.615 15.3584 5.47613 15.3584C8.33819 15.3584 10.666 17.6863 10.666 20.5483C10.6661 23.4093 8.3381 25.7373 5.47622 25.7373Z" fill="#469AF5"/>
<path fill-rule="evenodd" clip-rule="evenodd" d="M2.35235 20.9854C2.11124 20.9854 1.91553 20.7899 1.91553 20.5488C1.91562 18.5847 3.51297 16.9873 5.47619 16.9873C5.71823 16.9873 5.91283 17.1829 5.91283 17.4239C5.91293 17.6651 5.71813 17.8606 5.47619 17.8606C3.99437 17.8606 2.7889 19.066 2.7889 20.5488C2.78899 20.7899 2.59328 20.9854 2.35235 20.9854Z" fill="#469AF5"/>
<path fill-rule="evenodd" clip-rule="evenodd" d="M5.47628 13.574C5.23517 13.574 5.03955 13.3785 5.03955 13.1373L5.03974 10.8977C5.03974 10.6566 5.23508 10.4609 5.47619 10.4609C5.71823 10.4609 5.91375 10.6566 5.91375 10.8977L5.91394 13.1373C5.91394 13.3785 5.71813 13.574 5.47628 13.574Z" fill="#B6D64F"/>
<path fill-rule="evenodd" clip-rule="evenodd" d="M1.77192 14.5673C1.62087 14.5673 1.47443 14.4891 1.39342 14.349L0.273673 12.4086C0.152702 12.2002 0.224399 11.9328 0.432754 11.8128C0.642123 11.6917 0.908518 11.7636 1.02949 11.9719L2.14942 13.9124C2.27057 14.1206 2.19851 14.3881 1.98932 14.5082C1.92113 14.5482 1.84556 14.5673 1.77192 14.5673Z" fill="#B6D64F"/>
<path fill-rule="evenodd" clip-rule="evenodd" d="M9.1815 14.5673C9.10778 14.5673 9.0322 14.5482 8.96401 14.5082C8.75492 14.3881 8.68286 14.1206 8.80383 13.9124L9.92385 11.9719C10.0448 11.7636 10.3113 11.6917 10.5205 11.8128C10.7289 11.9328 10.8006 12.2002 10.6798 12.4086L9.55992 14.349C9.4789 14.4891 9.33237 14.5673 9.1815 14.5673Z" fill="#B6D64F"/>
<path fill-rule="evenodd" clip-rule="evenodd" d="M23.97 40.0003C23.7288 40.0003 23.5332 39.8056 23.5332 39.5636L23.5334 34.5402C23.5334 34.2991 23.7288 34.1035 23.9699 34.1035C24.2111 34.1035 24.4065 34.2991 24.4065 34.5402L24.4066 39.5636C24.4066 39.8056 24.211 40.0003 23.97 40.0003Z" fill="#469AF5"/>
<path fill-rule="evenodd" clip-rule="evenodd" d="M25.3289 36.343C25.0878 36.343 24.8921 36.1484 24.8921 35.9064C24.8923 35.6653 25.0877 35.4697 25.3288 35.4697C25.5699 35.4697 25.7655 35.6653 25.7655 35.9064C25.7655 36.1484 25.5698 36.343 25.3289 36.343Z" fill="#469AF5"/>
<path fill-rule="evenodd" clip-rule="evenodd" d="M25.3289 38.6341C25.0878 38.6341 24.8921 38.4385 24.8921 38.1975C24.8923 37.9564 25.0877 37.7607 25.3288 37.7607C25.5699 37.7607 25.7655 37.9564 25.7655 38.1975C25.7655 38.4385 25.5698 38.6341 25.3289 38.6341Z" fill="#469AF5"/>
</svg>
