<svg width="115" height="22" viewBox="0 0 115 22" fill="none" xmlns="http://www.w3.org/2000/svg">
<path fill-rule="evenodd" clip-rule="evenodd" d="M60.6723 17.362C61.2003 17.09 61.5603 16.874 61.7523 16.714L60.3123 13.594C59.9603 13.93 59.4483 14.25 58.7763 14.554C58.1043 14.858 57.2963 15.01 56.3523 15.01C55.2803 15.01 54.3443 14.77 53.5443 14.29C52.7443 13.81 52.1283 13.146 51.6963 12.298C51.2643 11.434 51.0483 10.434 51.0483 9.29802C51.0483 8.22602 51.2803 7.27402 51.7443 6.44202C52.2243 5.59402 52.8483 4.92202 53.6163 4.42602C54.4003 3.93002 55.2403 3.68202 56.1363 3.68202C57.0003 3.68202 57.7603 3.85002 58.4163 4.18602C59.0883 4.50602 59.6243 4.81802 60.0243 5.12202L61.3923 1.83402C60.8163 1.46602 60.0723 1.12202 59.1603 0.802021C58.2483 0.482021 57.2003 0.322021 56.0163 0.322021C54.7363 0.322021 53.5683 0.546022 52.5123 0.994022C51.4563 1.44202 50.5443 2.07402 49.7763 2.89002C49.0243 3.70602 48.4403 4.67402 48.0243 5.79402C47.6243 6.91402 47.4243 8.14602 47.4243 9.49002C47.4243 10.69 47.6243 11.818 48.0243 12.874C48.4243 13.93 49.0003 14.866 49.7523 15.682C50.5203 16.498 51.4483 17.146 52.5363 17.626C53.6403 18.09 54.8883 18.338 56.2803 18.37C57.1923 18.386 58.0243 18.29 58.7763 18.082C59.5283 17.874 60.1603 17.634 60.6723 17.362ZM67.7105 7.69002L67.9712 10.0961C68.2733 9.49034 68.6824 8.97631 69.1985 8.55402C69.7265 8.10602 70.2465 7.76202 70.7585 7.52202C71.2865 7.28202 71.6865 7.16202 71.9585 7.16202L71.7905 10.522C71.0065 10.426 70.3345 10.554 69.7745 10.906C69.2145 11.258 68.7825 11.722 68.4785 12.298C68.1745 12.874 68.0225 13.466 68.0225 14.074V18.178H64.6865V7.69002H67.7105ZM73.9896 9.922C73.4936 10.77 73.2456 11.73 73.2456 12.802C73.2456 13.986 73.5016 15.002 74.0136 15.85C74.5256 16.698 75.2296 17.346 76.1256 17.794C77.0376 18.242 78.0696 18.466 79.2216 18.466C80.4536 18.466 81.5096 18.218 82.3896 17.722C83.2696 17.226 83.9416 16.554 84.4056 15.706C84.8856 14.842 85.1256 13.874 85.1256 12.802C85.1256 11.73 84.8856 10.77 84.4056 9.922C83.9416 9.07401 83.2696 8.41001 82.3896 7.93001C81.5096 7.434 80.4696 7.186 79.2696 7.186C78.0856 7.186 77.0376 7.434 76.1256 7.93001C75.2136 8.41001 74.5016 9.07401 73.9896 9.922ZM76.9656 14.314C76.7416 13.866 76.6296 13.37 76.6296 12.826C76.6296 12.266 76.7416 11.77 76.9656 11.338C77.1896 10.906 77.4936 10.562 77.8776 10.306C78.2616 10.05 78.6936 9.922 79.1736 9.922C79.9576 9.922 80.5816 10.202 81.0456 10.762C81.5096 11.306 81.7416 11.994 81.7416 12.826C81.7416 13.658 81.5096 14.354 81.0456 14.914C80.5816 15.458 79.9576 15.73 79.1736 15.73C78.6936 15.73 78.2616 15.602 77.8776 15.346C77.4936 15.09 77.1896 14.746 76.9656 14.314ZM106.875 7.69001L107.111 9.35967C107.477 8.71955 107.991 8.203 108.651 7.81001C109.323 7.394 110.147 7.186 111.123 7.186C112.115 7.186 112.939 7.482 113.595 8.074C114.267 8.65 114.611 9.40201 114.627 10.33V18.178H111.267V11.578C111.251 11.114 111.123 10.746 110.883 10.474C110.659 10.186 110.275 10.042 109.731 10.042C108.947 10.042 108.323 10.41 107.859 11.146C107.411 11.866 107.187 12.786 107.187 13.906V18.178H103.827V7.69001H106.875ZM94.9091 7.69L96.8885 12.3291L98.6051 7.69H101.869L97.1411 18.802L93.7811 11.842L90.7091 18.802L85.9331 7.69H89.1971L91.1378 12.139L92.6051 8.89L92.0531 7.69H94.9091ZM41.1324 7.69002L41.3931 10.0961C41.6951 9.49034 42.1043 8.97631 42.6204 8.55402C43.1484 8.10602 43.6684 7.76202 44.1804 7.52202C44.7084 7.28202 45.1084 7.16202 45.3804 7.16202L45.2124 10.522C44.4284 10.426 43.7564 10.554 43.1964 10.906C42.6364 11.258 42.2044 11.722 41.9004 12.298C41.5964 12.874 41.4444 13.466 41.4444 14.074V18.178L38.1084 21.678V7.69002H41.1324ZM25.1183 17.89C25.9183 18.274 26.8063 18.466 27.7823 18.466C28.4063 18.466 28.9423 18.37 29.3903 18.178C29.8543 18.002 30.2383 17.794 30.5423 17.554C30.8623 17.298 31.1023 17.082 31.2623 16.906L31.2863 16.8774V18.178H34.6463V7.69002H31.5263L31.3088 8.76056C30.9647 8.36732 30.5331 8.01048 30.0143 7.69002C29.4863 7.33802 28.7023 7.16202 27.6623 7.16202C26.7823 7.16202 25.9503 7.40202 25.1663 7.88202C24.3823 8.34602 23.7503 9.01002 23.2703 9.87402C22.7903 10.738 22.5503 11.762 22.5503 12.946C22.5503 14.21 22.7823 15.25 23.2463 16.066C23.7103 16.882 24.3343 17.49 25.1183 17.89ZM30.2783 15.346C29.8623 15.602 29.3503 15.73 28.7423 15.73C28.2463 15.73 27.7823 15.602 27.3503 15.346C26.9343 15.09 26.5983 14.738 26.3423 14.29C26.0863 13.842 25.9583 13.338 25.9583 12.778C25.9583 12.218 26.0783 11.722 26.3183 11.29C26.5583 10.858 26.8783 10.522 27.2783 10.282C27.6943 10.026 28.1423 9.89802 28.6223 9.89802C29.2623 9.89802 29.8143 10.05 30.2783 10.354C30.7583 10.658 31.0943 11.066 31.2863 11.578V14.146C31.0303 14.674 30.6943 15.074 30.2783 15.346ZM0 0.634003H4.08L7.55087 10.8476L10.2539 4.11963L8.856 0.634003H12.312L16.2833 10.4415L19.272 0.634003H23.016L16.2 18.946L12.0027 8.48024L7.104 18.994L0 0.634003ZM82.1073 2.31703C82.1294 2.31383 82.152 2.31711 82.1719 2.32643C82.1923 2.33567 82.2089 2.35066 82.2195 2.36923C82.2301 2.3878 82.2341 2.40901 82.2309 2.4298L81.8025 5.09352C81.7986 5.11722 81.7856 5.13882 81.7659 5.15435C81.7462 5.16987 81.7212 5.17827 81.6954 5.178H76.7688C76.743 5.17827 76.7179 5.16987 76.6982 5.15435C76.6785 5.13882 76.6656 5.11722 76.6617 5.09352L76.2333 2.4298C76.2297 2.40899 76.2333 2.38766 76.2436 2.36889C76.2539 2.35012 76.2704 2.33487 76.2907 2.32536C76.311 2.31585 76.3339 2.31256 76.3564 2.31597C76.3788 2.31938 76.3994 2.32931 76.4154 2.34432L77.7091 3.5261L79.1389 1.22318C79.1493 1.20924 79.1633 1.19785 79.1795 1.18998C79.1957 1.18212 79.2138 1.17801 79.2321 1.17801C79.2504 1.17801 79.2684 1.18212 79.2846 1.18998C79.3008 1.19785 79.3148 1.20924 79.3252 1.22318L80.755 3.5261L82.0488 2.34432C82.0647 2.32979 82.0852 2.32024 82.1073 2.31703Z" fill="#E9E9E9"/>
</svg>
